<?xml version="1.0" standalone="no"?>
<!DOCTYPE svg PUBLIC "-//W3C//DTD SVG 20010904//EN"
 "http://www.w3.org/TR/2001/REC-SVG-20010904/DTD/svg10.dtd">
<svg version="1.0" xmlns="http://www.w3.org/2000/svg"
 width="310.000000pt" height="310.000000pt" viewBox="0 0 310.000000 310.000000"
 preserveAspectRatio="xMidYMid meet">
<metadata>
Created by potrace 1.11, written by Peter Selinger 2001-2013
</metadata>
<g transform="translate(0.000000,310.000000) scale(0.100000,-0.100000)"
fill="#000000" stroke="none">
<path d="M2141 2666 c0 -11 -4 -16 -8 -13 -3 4 -12 2 -20 -5 -11 -8 -12 -7 -7
6 3 9 2 16 -4 16 -5 0 -12 -7 -15 -14 -5 -12 -13 -13 -37 -6 -29 8 -30 7 -18
-7 11 -14 11 -15 -2 -11 -8 3 -20 -2 -26 -11 -10 -12 -15 -13 -27 -3 -12 10
-17 10 -23 1 -4 -7 -3 -9 4 -5 11 7 28 -31 18 -41 -3 -4 -6 1 -6 9 0 18 -24
18 -41 1 -8 -8 -7 -13 2 -18 8 -6 10 -4 4 5 -5 9 -4 11 4 6 19 -12 2 -27 -19
-16 -13 7 -21 7 -26 -2 -4 -6 -3 -8 3 -5 6 4 14 0 17 -9 3 -8 2 -12 -4 -9 -9
6 -15 -9 -11 -29 1 -5 -5 -3 -14 4 -14 11 -15 10 -6 -12 7 -19 6 -25 -5 -25
-8 0 -13 6 -10 13 3 8 2 16 -3 18 -4 3 -8 0 -8 -7 0 -7 -4 -21 -8 -32 -5 -14
-4 -16 3 -6 6 8 12 9 16 3 7 -12 -21 -24 -37 -16 -7 3 -4 -1 6 -9 16 -13 16
-15 1 -21 -12 -5 -13 -10 -6 -19 7 -8 7 -18 2 -27 -5 -8 -6 -18 -3 -23 3 -4
-4 -11 -16 -14 -11 -3 -18 -9 -16 -14 3 -4 13 -5 23 -2 13 4 13 2 -3 -10 -14
-11 -22 -12 -27 -4 -4 7 -6 2 -5 -10 0 -12 4 -20 8 -17 4 2 12 -3 18 -10 10
-12 8 -13 -11 -9 -22 6 -23 6 -5 -14 11 -13 14 -23 8 -27 -5 -4 -8 -15 -6 -26
3 -13 -2 -20 -13 -21 -12 0 -10 -3 6 -10 15 -6 21 -13 15 -21 -13 -22 -13 -48
0 -49 6 0 3 -4 -8 -9 -11 -5 -14 -9 -7 -9 7 -1 10 -5 7 -11 -3 -5 -7 -27 -9
-49 -2 -32 0 -38 12 -33 11 4 13 2 6 -9 -12 -20 -13 -82 0 -69 5 5 17 10 25
10 11 0 10 -4 -5 -15 -14 -11 -15 -15 -4 -13 9 2 15 -1 15 -7 0 -5 -4 -9 -8
-7 -5 1 -6 -2 -3 -7 4 -5 0 -12 -6 -15 -7 -3 -2 -3 12 1 23 5 24 5 10 -12 -8
-11 -10 -16 -4 -12 7 4 14 0 17 -8 4 -9 1 -12 -7 -9 -7 3 -13 -1 -13 -9 0 -9
9 -13 24 -11 12 1 26 -3 30 -9 3 -7 3 -9 -2 -5 -4 4 -15 2 -23 -5 -13 -10 -14
-9 -7 2 5 10 4 12 -4 7 -16 -10 -4 -26 20 -26 11 0 17 -5 14 -10 -4 -6 -11 -7
-17 -4 -7 4 -8 2 -4 -5 4 -6 12 -9 17 -6 5 4 9 1 9 -5 0 -6 5 -8 13 -4 9 6 9
5 0 -8 -7 -8 -9 -19 -5 -23 4 -5 1 -5 -6 -1 -7 4 -10 12 -7 17 4 5 1 9 -4 9
-6 0 -11 -4 -11 -9 0 -16 27 -31 46 -25 11 3 15 2 9 -3 -6 -4 -12 -19 -13 -33
-1 -19 1 -21 8 -10 8 12 10 11 10 -5 0 -17 2 -17 10 -5 5 8 10 10 10 5 0 -6
-5 -16 -12 -23 -9 -9 -9 -12 0 -12 7 0 12 -7 12 -16 0 -8 5 -12 10 -9 6 3 10
-3 10 -14 0 -12 -6 -21 -12 -21 -7 0 -5 -5 5 -11 9 -6 14 -15 11 -21 -4 -6 -3
-9 2 -6 5 3 18 2 29 -3 18 -7 18 -8 2 -8 -21 -1 -18 -23 4 -29 11 -3 11 -2 -1
7 -13 9 -13 11 3 11 9 0 17 -7 17 -16 0 -9 5 -12 12 -8 7 4 8 3 4 -5 -4 -6
-13 -8 -19 -4 -8 5 -8 2 0 -9 7 -8 9 -19 5 -23 -4 -5 -1 -5 6 -1 6 4 12 3 12
-3 0 -5 -6 -12 -12 -15 -7 -3 -3 -3 10 0 16 4 22 1 22 -11 0 -9 -4 -13 -10
-10 -5 3 -10 1 -10 -4 0 -15 13 -14 29 1 10 11 11 9 5 -6 -4 -11 -3 -17 2 -14
5 4 9 -8 9 -25 0 -28 3 -32 25 -30 14 1 19 0 13 -3 -16 -7 -17 -34 -2 -34 6 0
8 -9 4 -22 -5 -18 -4 -20 4 -8 8 11 11 12 11 2 0 -7 5 -10 10 -7 6 3 10 -1 10
-9 0 -9 5 -16 12 -16 9 0 9 -3 0 -12 -14 -14 19 -65 52 -78 18 -7 18 -9 3 -9
-10 -1 -15 -6 -12 -12 4 -6 13 -8 21 -5 7 3 16 0 20 -6 4 -7 3 -8 -4 -4 -7 4
-12 3 -12 -2 0 -5 10 -14 23 -21 18 -9 18 -11 2 -6 -20 5 -20 5 -1 -10 14 -11
16 -15 5 -15 -8 -1 -3 -7 11 -15 14 -7 24 -16 23 -19 -2 -3 -3 -12 -3 -18 0
-9 3 -9 9 1 6 9 8 0 7 -27 -2 -35 0 -39 13 -29 12 10 13 9 2 -10 -8 -16 -8
-23 -1 -23 6 0 8 -4 5 -10 -3 -5 -1 -10 5 -10 7 0 9 8 5 20 -3 11 -3 20 2 20
16 0 12 -44 -5 -65 -12 -14 -13 -16 -2 -8 10 8 21 9 30 3 13 -8 12 -10 -2 -10
-11 0 -15 -5 -12 -15 4 -8 0 -23 -7 -32 -10 -12 -10 -15 -1 -9 8 5 12 1 12
-12 0 -23 -23 -45 -35 -34 -5 4 -6 2 -2 -3 6 -11 -16 -46 -28 -47 -4 0 -12 6
-16 14 -6 9 -9 9 -9 1 0 -7 8 -17 18 -22 9 -6 12 -11 6 -11 -6 0 -24 11 -39
24 -24 20 -32 23 -49 14 -19 -10 -19 -9 -8 4 9 11 10 18 2 23 -6 3 -7 11 -4
17 4 7 2 8 -5 4 -9 -6 -9 -11 0 -22 15 -18 2 -18 -17 0 -9 10 -11 17 -3 21 12
8 -17 45 -35 45 -6 0 0 -9 14 -20 24 -18 24 -19 3 -17 -12 0 -20 4 -17 8 2 4
0 10 -6 14 -7 4 -7 12 0 25 14 27 12 34 -5 20 -9 -7 -18 -10 -22 -6 -3 3 -1 6
6 6 7 0 9 5 6 10 -4 6 -11 8 -16 5 -12 -8 2 28 15 37 7 5 6 11 -3 20 -9 8 -11
9 -7 1 3 -6 1 -15 -5 -19 -7 -4 -16 2 -23 12 -14 25 -14 36 -2 53 8 11 8 13
-1 7 -7 -4 -13 -3 -13 3 0 5 5 11 12 13 7 3 5 7 -6 11 -9 4 -15 3 -11 -2 3 -5
1 -12 -4 -16 -6 -3 -8 3 -6 15 2 11 -3 24 -13 30 -16 9 -16 9 0 10 9 0 19 4
23 9 3 6 -3 8 -13 6 -15 -3 -19 2 -18 24 0 30 -26 65 -40 52 -5 -4 -20 -4 -34
0 -25 9 -25 9 3 5 34 -4 35 7 1 22 -14 7 -23 8 -19 2 3 -5 1 -10 -4 -10 -6 0
-11 4 -11 10 0 6 -9 6 -26 0 -19 -8 -31 -7 -41 1 -11 10 -13 10 -11 -1 2 -7
-3 -15 -11 -18 -8 -2 -11 0 -8 5 3 5 0 10 -8 10 -12 0 -12 -3 -2 -16 10 -12 9
-14 -5 -8 -10 3 -20 1 -24 -5 -4 -6 -3 -8 4 -4 6 3 13 2 17 -3 3 -5 -3 -15
-12 -21 -17 -11 -17 -11 -1 -6 18 6 43 -26 30 -38 -3 -4 0 -11 8 -16 10 -6 11
-10 3 -10 -15 0 -35 35 -26 44 3 3 1 6 -6 6 -9 0 -11 -6 -6 -17 4 -10 8 -23 8
-30 0 -7 3 -10 7 -8 3 2 12 0 20 -6 9 -5 10 -9 4 -9 -7 0 -14 -7 -17 -14 -4
-11 -1 -13 11 -10 14 5 13 3 -2 -10 -19 -15 -13 -21 19 -17 6 1 1 -6 -9 -14
-11 -8 -15 -15 -9 -15 6 0 13 -9 16 -19 3 -15 1 -18 -12 -14 -12 4 -12 1 3
-11 10 -8 23 -13 29 -9 6 4 7 1 1 -8 -4 -8 -9 -20 -10 -27 -2 -8 -6 -17 -10
-20 -4 -4 -4 1 -1 10 4 12 2 15 -9 11 -13 -5 -13 -8 2 -24 16 -18 16 -19 -2
-19 -18 -1 -18 -1 -1 -11 12 -7 16 -17 12 -32 -5 -18 -4 -19 5 -7 10 12 11 11
7 -8 -5 -19 -3 -21 9 -11 8 6 17 9 21 5 3 -3 1 -6 -5 -6 -6 0 -9 -7 -5 -17 4
-10 2 -14 -4 -10 -5 3 -10 -1 -10 -9 0 -9 6 -13 16 -9 12 5 12 2 -2 -13 -25
-27 -21 -38 5 -16 20 17 21 17 8 1 -12 -16 -12 -20 1 -28 11 -6 8 -9 -11 -9
-18 0 -21 -3 -11 -9 8 -5 12 -18 8 -31 -4 -17 -3 -19 9 -9 17 14 19 -2 2 -19
-9 -9 -9 -12 1 -12 7 0 10 -3 8 -8 -3 -4 5 -7 18 -7 13 0 21 5 18 10 -2 6 5
-1 18 -15 l22 -25 -8 25 c-4 14 -4 22 0 18 5 -4 15 -2 24 5 14 10 14 10 3 -5
-12 -15 -11 -17 7 -15 11 0 17 5 14 10 -3 5 5 6 18 2 21 -7 22 -7 6 9 -9 9
-13 24 -10 32 4 12 8 13 14 3 4 -7 5 -18 1 -24 -3 -5 2 -4 11 4 9 7 14 17 11
22 -3 5 3 6 12 2 10 -4 15 -2 11 4 -3 5 0 10 8 10 8 0 13 -2 10 -5 -2 -3 7
-14 21 -25 20 -15 28 -17 37 -8 9 9 9 11 -3 6 -9 -3 -21 4 -29 17 -13 22 -13
22 5 6 19 -16 22 -18 47 -18 8 0 7 -3 -3 -10 -13 -8 -13 -11 -1 -22 8 -7 11
-8 8 -3 -3 6 3 17 14 23 18 12 19 11 10 -7 -15 -26 -14 -38 1 -23 16 16 31 15
22 -1 -6 -9 -5 -9 7 0 18 14 30 13 48 -4 11 -12 19 -10 48 7 45 26 50 25 17
-3 -20 -17 -23 -24 -11 -24 9 0 14 4 12 8 -3 4 2 10 11 13 22 9 26 8 18 -6 -4
-7 -3 -8 5 -4 6 4 9 12 6 17 -4 5 3 9 15 9 13 0 19 4 14 12 -5 7 -3 8 7 2 20
-12 40 -14 33 -3 -3 5 -10 6 -16 3 -7 -4 -8 -2 -4 4 4 6 12 9 19 7 17 -6 50
21 42 34 -4 7 0 8 10 5 9 -4 14 -13 11 -20 -3 -8 -3 -14 0 -14 2 0 9 12 14 26
6 14 14 23 19 19 6 -3 8 4 6 16 -3 14 0 19 9 16 7 -3 13 1 14 9 1 8 3 21 4 29
1 8 4 13 7 11 3 -2 16 0 29 5 19 7 21 12 12 28 -7 14 -7 22 2 27 6 4 8 3 4 -4
-3 -6 -3 -13 2 -16 5 -3 9 0 9 7 0 7 3 25 6 39 6 23 4 27 -10 22 -17 -5 -17
-5 0 6 9 6 15 15 12 21 -4 5 -1 9 5 9 7 0 10 7 7 14 -4 10 -1 13 8 10 12 -5
12 -10 -2 -30 -14 -22 -14 -24 0 -18 9 3 16 9 15 12 0 4 1 9 2 12 8 20 5 47
-5 44 -6 -3 -12 2 -12 10 0 8 6 12 14 9 17 -7 17 7 -2 33 -8 12 -11 24 -8 28
7 7 13 42 14 78 0 11 6 15 17 11 11 -3 13 -2 6 4 -6 4 -10 16 -8 25 1 10 -3
21 -8 25 -7 4 -8 1 -3 -8 5 -8 4 -11 0 -6 -14 13 -13 47 2 47 8 0 12 4 8 10
-3 5 -13 7 -23 4 -13 -5 -14 -4 -3 4 7 5 11 16 9 23 -3 8 2 19 11 26 14 11 13
12 -7 8 -18 -3 -21 -1 -14 8 12 14 12 88 0 81 -4 -3 -8 1 -8 8 0 10 -3 9 -11
-2 -9 -13 -10 -13 -6 0 2 8 0 25 -4 37 -6 17 -5 21 6 17 7 -3 11 -13 8 -22 -4
-15 -3 -15 6 -2 8 11 6 19 -8 31 -18 15 -19 17 -3 34 9 10 12 15 6 12 -7 -4
-17 0 -24 8 -7 8 -15 13 -19 11 -4 -3 -8 5 -8 17 -2 20 -1 20 8 5 11 -20 29
-24 29 -7 0 5 -4 7 -10 4 -5 -3 -10 1 -10 9 0 9 -7 16 -15 16 -17 0 -29 40
-23 75 5 22 3 23 -10 13 -13 -11 -15 -10 -9 4 3 10 1 20 -5 24 -6 4 -8 3 -5
-3 3 -5 0 -10 -8 -10 -8 0 -11 5 -8 10 3 5 -1 14 -8 19 -11 8 -10 9 4 4 21 -7
22 -2 1 19 -14 13 -14 18 -2 32 9 12 9 15 1 9 -7 -4 -13 -2 -13 3 0 6 -9 11
-20 11 -21 0 -27 15 -10 25 6 3 10 11 10 18 0 8 -3 8 -12 -1 -15 -15 -28 -15
-28 -1 0 5 5 7 10 4 6 -3 10 1 10 9 0 9 -7 16 -15 16 -9 0 -12 6 -8 17 4 11 3
14 -5 9 -7 -4 -12 -2 -12 4 0 6 -5 8 -12 4 -7 -4 -8 -3 -4 5 4 6 13 9 19 5 7
-3 1 4 -13 17 -14 13 -21 20 -14 16 7 -5 15 -3 20 4 4 8 3 9 -4 5 -7 -4 -12
-2 -12 3 0 6 -7 11 -16 11 -15 0 -15 3 1 28 10 15 12 22 5 16 -6 -7 -20 -9
-31 -7 -18 5 -18 6 -1 22 10 9 16 15 14 14 -11 -6 -42 19 -36 29 4 7 3 8 -4 4
-7 -4 -12 -1 -12 8 0 8 3 16 8 19 4 2 1 2 -7 0 -9 -2 -11 2 -7 13 6 15 4 15
-11 3 -15 -12 -16 -12 -10 5 5 14 3 17 -8 13 -8 -4 -17 -1 -21 5 -4 7 -3 8 4
4 7 -4 12 -2 12 4 0 6 5 8 12 4 7 -4 8 -3 4 5 -4 6 -12 9 -17 6 -5 -4 -9 -1
-9 5 0 6 -4 9 -9 6 -5 -4 -7 4 -4 16 5 19 3 21 -8 11 -7 -7 -18 -13 -24 -13
-5 0 -4 4 4 9 13 8 13 12 0 28 -13 16 -12 17 3 5 13 -11 18 -11 24 0 4 7 4 10
-1 6 -4 -4 -14 0 -22 8 -8 8 -19 11 -25 8 -6 -4 -8 -2 -5 3 4 6 0 16 -8 23 -8
7 -15 18 -15 24 0 6 5 4 10 -4 8 -13 10 -12 10 3 0 9 -4 17 -10 17 -5 0 -10
12 -10 26 0 20 -3 24 -13 16 -10 -8 -13 -6 -13 7 0 12 6 17 16 14 10 -3 10 -1
-3 7 -9 6 -22 8 -27 5 -6 -4 -7 1 -3 11 4 10 2 15 -4 11 -5 -3 -10 0 -10 8 0
13 3 13 17 0 14 -13 17 -13 17 0 0 8 -3 13 -6 11 -3 -2 -12 2 -19 10 -10 11
-10 14 0 14 10 0 10 2 -1 9 -8 5 -11 16 -8 26 4 9 3 14 -2 11 -10 -7 -25 23
-22 43 2 8 -2 10 -11 5 -10 -6 -10 -5 0 9 8 9 11 21 7 26 -3 7 0 8 10 5 11 -5
13 -10 5 -19 -11 -14 5 -33 17 -21 4 3 1 6 -6 6 -7 0 -9 5 -4 13 4 6 8 20 9
30 1 9 2 21 3 26 0 4 17 6 37 4 27 -3 34 -1 28 9 -4 8 -3 10 2 5 5 -5 9 -14 9
-20 0 -5 6 -12 13 -15 8 -2 10 3 6 15 -5 14 -4 15 4 3 8 -10 7 -18 0 -28 -9
-10 -8 -12 3 -10 8 2 13 -4 13 -14 -1 -10 3 -16 9 -15 6 1 12 -2 12 -8 1 -5 5
-18 10 -28 7 -17 8 -17 29 0 16 14 18 14 8 2 -10 -14 -10 -18 4 -23 16 -6 16
-8 0 -25 -15 -16 -15 -18 6 -17 19 1 22 -4 21 -31 0 -20 4 -30 10 -26 6 4 8 0
4 -11 -5 -13 -1 -19 14 -23 15 -4 17 -8 8 -14 -7 -4 -13 -17 -14 -28 -1 -11 2
-18 7 -15 5 4 7 12 4 20 -3 8 -2 14 3 14 11 0 35 -29 37 -44 0 -6 2 -17 2 -24
1 -8 7 -10 15 -6 10 6 10 4 0 -7 -22 -22 -14 -33 9 -13 12 10 18 14 15 8 -7
-12 14 -36 29 -33 22 4 34 -2 34 -16 0 -18 16 -20 26 -3 4 7 3 8 -4 4 -7 -4
-12 -2 -12 3 0 6 10 9 23 7 12 -3 24 -5 27 -5 3 -1 -1 -5 -9 -10 -7 -5 -9 -11
-4 -14 5 -3 15 3 22 15 7 11 8 17 2 13 -6 -3 -11 -1 -11 5 0 6 10 10 23 8 14
-2 21 2 19 10 -2 10 4 12 20 7 20 -5 21 -4 5 5 -20 13 -41 4 -31 -12 4 -7 2
-8 -5 -4 -8 5 -9 12 -2 20 11 13 10 34 -2 53 -4 6 -3 14 3 18 14 9 5 51 -11
47 -10 -3 -10 0 1 12 7 9 9 16 5 16 -5 0 -1 8 8 18 15 16 15 19 2 19 -8 0 -15
-5 -15 -10 0 -6 -3 -7 -7 -4 -3 4 2 17 13 29 10 12 14 18 7 15 -7 -5 -12 -1
-12 10 -1 44 -5 54 -18 49 -8 -3 -11 -1 -8 4 3 6 1 10 -4 10 -6 0 -11 5 -11
11 0 5 5 7 10 4 14 -9 13 8 -2 23 -8 8 -8 15 2 27 7 9 9 15 4 13 -8 -3 -14 4
-14 17 0 3 10 1 23 -5 20 -10 20 -10 5 3 -10 8 -14 18 -10 22 4 5 0 6 -9 3
-13 -5 -15 1 -14 38 2 26 -1 41 -7 38 -5 -3 -4 3 3 14 16 25 9 35 -26 35 -22
0 -23 1 -9 12 14 9 14 14 4 20 -9 5 -11 4 -6 -3 4 -7 3 -12 -3 -12 -5 0 -12 6
-14 13 -4 9 -6 9 -6 -1 -1 -10 -6 -10 -23 -1 -21 11 -22 11 -9 -4 17 -21 8
-22 -13 -1 -10 10 -16 11 -16 4 0 -7 -7 -10 -15 -6 -8 3 -14 2 -14 -2 3 -20
-2 -25 -12 -12 -9 13 -10 12 -5 -2 3 -10 -1 -24 -9 -32 -8 -7 -11 -17 -7 -21
4 -5 1 -5 -6 0 -10 5 -11 10 -3 18 6 6 11 16 11 22 0 5 -5 2 -11 -8 -6 -10
-15 -14 -22 -10 -7 4 -3 -6 7 -22 13 -20 14 -26 4 -18 -8 7 -19 9 -23 5 -5 -4
-5 -2 -1 5 3 6 2 14 -4 18 -6 4 -7 11 -4 17 5 7 2 8 -6 3 -7 -4 -16 -2 -22 6
-8 11 -9 10 -4 -4 5 -14 2 -16 -13 -8 -10 6 -21 7 -25 4 -3 -3 -7 -1 -7 5 -3
27 -4 31 -13 39 -5 4 -7 3 -3 -2 3 -6 -3 -17 -14 -23 -19 -12 -19 -11 -8 10 6
13 8 20 4 16 -5 -4 -15 -2 -23 5 -13 9 -14 9 -8 0 4 -7 2 -13 -3 -13 -6 0 -11
5 -11 12 0 6 -3 8 -7 5 -3 -4 -12 -2 -20 5 -11 9 -13 8 -11 -2 5 -20 -20 -23
-25 -3 -4 16 -5 16 -6 -1z m94 -26 c-3 -5 -12 -10 -18 -10 -7 0 -6 4 3 10 19
12 23 12 15 0z m365 -24 c0 -2 -7 -7 -16 -10 -8 -3 -12 -2 -9 4 6 10 25 14 25
6z m-436 -162 c3 -8 2 -12 -4 -9 -6 3 -10 10 -10 16 0 14 7 11 14 -7z m186
-70 c0 -8 -19 -13 -24 -6 -3 5 1 9 9 9 8 0 15 -2 15 -3z m285 -34 c-3 -5 -1
-10 6 -10 7 0 10 -2 7 -5 -3 -3 -13 -2 -22 1 -14 5 -15 9 -4 15 17 11 20 11
13 -1z m-211 -97 c4 -9 1 -21 -5 -27 -9 -8 -10 -8 -5 2 4 7 2 19 -4 27 -7 9
-8 15 -2 15 5 0 13 -8 16 -17z m-604 -229 c0 -8 -19 -13 -24 -6 -3 5 1 9 9 9
8 0 15 -2 15 -3z m-3 -30 c-3 -3 -12 -4 -19 -1 -8 3 -5 6 6 6 11 1 17 -2 13
-5z m3 -54 c-9 -6 -9 -9 1 -12 10 -3 9 -6 -2 -10 -11 -4 -15 1 -15 17 0 15 5
21 14 18 10 -4 11 -8 2 -13z m580 -60 c13 -8 13 -10 -2 -10 -9 0 -20 5 -23 10
-8 13 5 13 25 0z m145 -260 c3 -5 2 -10 -4 -10 -5 0 -13 5 -16 10 -3 6 -2 10
4 10 5 0 13 -4 16 -10z m-551 -106 c5 -14 4 -15 -9 -4 -17 14 -19 20 -6 20 5
0 12 -7 15 -16z m671 -154 c3 -5 1 -10 -4 -10 -6 0 -11 5 -11 10 0 6 2 10 4
10 3 0 8 -4 11 -10z m-547 -54 c-7 -8 -15 -12 -17 -11 -5 6 10 25 20 25 5 0 4
-6 -3 -14z m569 -88 c-3 -8 -6 -5 -6 6 -1 11 2 17 5 13 3 -3 4 -12 1 -19z
m-482 -49 c-4 -6 1 -17 11 -24 11 -8 15 -15 9 -15 -5 0 -3 -5 5 -10 9 -6 10
-10 3 -10 -19 0 -56 57 -41 63 19 8 20 8 13 -4z m-315 -83 c0 -3 -4 -8 -10
-11 -5 -3 -10 -1 -10 4 0 6 5 11 10 11 6 0 10 -2 10 -4z m-47 -21 c-3 -9 -8
-14 -10 -11 -3 3 -2 9 2 15 9 16 15 13 8 -4z m182 -13 c-3 -3 -11 0 -18 7 -9
10 -8 11 6 5 10 -3 15 -9 12 -12z m695 -26 c0 -2 -7 -7 -16 -10 -8 -3 -12 -2
-9 4 6 10 25 14 25 6z m-840 -266 c-10 -18 -9 -24 1 -31 10 -6 10 -9 2 -9 -20
0 -24 17 -12 44 7 14 14 24 16 22 3 -2 -1 -14 -7 -26z m510 0 c0 -5 -2 -10 -4
-10 -3 0 -8 5 -11 10 -3 6 -1 10 4 10 6 0 11 -4 11 -10z m-25 -69 c-3 -6 -11
-11 -17 -11 -6 0 -6 6 2 15 14 17 26 13 15 -4z m-116 -24 c8 -10 7 -14 -2 -14
-8 0 -14 6 -14 14 0 7 1 13 2 13 2 0 8 -6 14 -13z m395 5 c3 -5 -1 -9 -9 -9
-8 0 -12 4 -9 9 3 4 7 8 9 8 2 0 6 -4 9 -8z m-89 -103 c-4 -5 -12 -9 -18 -8
-9 0 -8 2 1 6 6 2 9 10 6 15 -4 7 -2 8 5 4 6 -4 9 -12 6 -17z m-625 -69 c0 -5
-5 -10 -11 -10 -5 0 -7 5 -4 10 3 6 8 10 11 10 2 0 4 -4 4 -10z m400 -16 c0
-8 -19 -13 -24 -6 -3 5 1 9 9 9 8 0 15 -2 15 -3z"/>
<path d="M875 2651 c-3 -5 -1 -12 5 -16 21 -13 8 -20 -40 -21 -28 0 -45 3 -38
7 6 4 16 5 20 3 4 -3 5 3 1 12 -4 11 -8 13 -11 6 -2 -7 -10 -12 -18 -12 -8 0
-14 -6 -14 -12 -1 -7 -7 -2 -14 11 -11 20 -14 21 -20 6 -3 -9 -3 -22 1 -27 4
-7 1 -8 -6 -4 -7 5 -10 14 -7 22 3 7 0 16 -6 20 -6 4 -8 3 -5 -2 3 -6 2 -16
-4 -24 -6 -10 -9 -11 -9 -2 0 6 -7 12 -16 12 -10 0 -14 -5 -10 -16 4 -10 2
-13 -7 -7 -6 4 -18 8 -25 9 -8 2 -17 6 -20 10 -4 4 1 4 10 1 10 -3 20 -1 24 6
4 7 4 9 -1 5 -4 -4 -14 -3 -20 2 -15 12 -29 -15 -18 -32 4 -7 1 -8 -6 -4 -7 5
-10 14 -7 22 3 7 0 16 -6 20 -6 4 -8 3 -5 -2 3 -6 2 -16 -4 -24 -6 -10 -9 -11
-9 -2 0 6 -7 12 -16 12 -11 0 -14 -5 -10 -16 5 -14 4 -15 -9 -4 -8 7 -15 9
-15 5 0 -4 -7 -2 -16 6 -19 16 -63 19 -57 3 2 -6 -3 -11 -11 -11 -8 0 -12 5
-10 12 3 7 -11 11 -39 11 -32 -1 -43 -4 -40 -13 3 -7 -2 -13 -12 -13 -10 0
-13 5 -9 12 5 7 3 8 -5 4 -7 -5 -10 -10 -7 -13 3 -3 1 -15 -5 -26 -7 -12 -7
-17 -1 -13 6 4 8 -2 5 -14 -3 -11 -9 -18 -13 -15 -5 3 -12 0 -16 -6 -5 -8 -3
-9 6 -4 9 5 10 2 5 -14 -4 -12 -2 -21 4 -21 6 0 11 -5 11 -11 0 -5 -4 -7 -10
-4 -5 3 -10 1 -10 -4 0 -6 9 -11 19 -11 11 0 23 -5 27 -12 5 -7 2 -9 -7 -6 -8
3 -20 0 -26 -8 -11 -11 -7 -12 17 -9 17 2 30 -1 30 -6 0 -5 -5 -9 -12 -9 -6 0
-8 -3 -5 -6 4 -4 14 -1 24 7 11 9 14 10 9 2 -4 -7 -3 -13 3 -13 5 0 8 -9 6
-20 -2 -11 -1 -19 3 -17 4 3 16 1 27 -4 l20 -8 -20 -1 c-18 -1 -18 -2 3 -10
21 -9 22 -11 7 -33 -8 -13 -12 -26 -9 -30 4 -3 3 -14 -1 -24 -13 -28 -14 -44
-4 -37 5 3 7 9 5 13 -3 4 1 8 9 8 10 0 8 -8 -7 -30 -18 -25 -19 -29 -5 -24 21
8 32 -10 17 -28 -7 -8 -9 -22 -6 -31 6 -15 4 -15 -11 -3 -12 10 -15 10 -9 1 4
-7 2 -20 -6 -29 -11 -14 -11 -16 2 -8 8 5 22 10 30 12 12 1 11 -1 -2 -11 -14
-10 -15 -15 -5 -25 9 -10 9 -11 -4 -6 -10 4 -16 0 -16 -9 0 -8 8 -13 19 -11
10 2 16 0 13 -6 -4 -5 -13 -9 -22 -9 -12 0 -11 -5 7 -20 13 -11 18 -20 11 -20
-7 0 -9 -5 -5 -12 5 -7 2 -9 -8 -5 -17 6 -17 -1 -4 -41 5 -15 3 -29 -6 -39
-11 -14 -10 -15 12 -9 14 4 20 4 15 -1 -6 -4 -10 -18 -9 -30 1 -26 -6 -29 -26
-10 -8 6 -7 3 3 -9 13 -16 14 -23 4 -34 -10 -10 -9 -12 5 -7 22 8 33 -10 18
-28 -6 -8 -8 -20 -4 -26 5 -9 2 -10 -9 -6 -17 6 -17 0 2 -62 l10 -33 -22 18
c-18 16 -19 16 -8 2 11 -15 11 -21 0 -35 -12 -15 -12 -16 1 -8 8 5 22 10 30
12 12 1 11 -1 -2 -11 -14 -10 -15 -15 -5 -25 9 -10 9 -11 -4 -6 -10 4 -16 0
-16 -9 0 -8 8 -13 19 -11 10 2 16 0 13 -6 -4 -5 -13 -9 -22 -9 -13 0 -11 -4 6
-19 18 -15 19 -20 6 -24 -8 -4 -12 -13 -9 -21 3 -8 2 -21 -2 -28 -12 -19 -14
-39 -3 -32 5 3 7 9 5 13 -3 4 1 8 9 8 10 0 8 -8 -7 -30 -18 -25 -19 -29 -5
-24 24 9 30 -9 12 -36 -8 -13 -12 -26 -9 -30 4 -3 3 -14 -1 -24 -13 -28 -14
-44 -4 -37 5 3 7 9 5 13 -3 4 1 8 9 8 10 0 8 -8 -7 -30 -18 -25 -19 -29 -5
-24 21 8 32 -10 17 -28 -6 -8 -8 -20 -4 -26 5 -8 2 -10 -8 -6 -17 6 -17 -1 -4
-41 5 -15 3 -29 -6 -39 -11 -14 -10 -15 12 -9 14 4 20 4 15 -1 -6 -4 -10 -18
-9 -30 1 -26 -6 -29 -26 -10 -8 6 -7 3 3 -9 13 -16 14 -23 4 -34 -10 -10 -9
-12 5 -7 22 8 33 -10 18 -28 -6 -8 -8 -20 -4 -26 5 -8 2 -10 -8 -6 -17 6 -17
-1 -4 -41 5 -15 3 -29 -6 -39 -7 -9 -8 -14 -2 -10 16 9 25 -28 10 -43 -8 -8
-7 -10 4 -7 8 2 12 2 8 0 -5 -3 -8 -11 -8 -19 0 -8 -5 -14 -11 -14 -5 0 -7 -5
-4 -10 4 -6 11 -8 16 -5 15 10 10 -2 -8 -16 -11 -10 -14 -10 -9 -2 4 8 2 13
-5 13 -6 0 -9 -8 -6 -19 3 -14 1 -18 -9 -14 -8 3 -11 10 -7 17 4 6 -1 5 -10
-3 -18 -14 -23 -26 -8 -16 5 3 12 1 15 -4 3 -5 -4 -11 -15 -14 -14 -4 -18 -10
-13 -19 5 -7 -5 -5 -21 6 l-30 19 25 -27 c21 -23 22 -26 5 -20 -18 7 -18 6 -6
-9 7 -9 10 -17 5 -17 -5 0 -2 -5 6 -10 9 -6 10 -10 3 -10 -6 0 -10 -9 -8 -20
2 -11 0 -22 -6 -25 -5 -4 -9 -12 -9 -18 0 -7 4 -6 10 3 8 11 9 5 6 -23 -2 -26
0 -35 7 -28 6 6 18 6 34 0 13 -5 22 -5 19 -1 -2 4 5 14 17 22 20 12 21 12 8
-3 -7 -10 -10 -17 -5 -18 56 -5 82 -4 78 3 -3 5 -11 5 -17 2 -7 -4 -8 -3 -4 1
13 15 37 14 37 0 0 -8 5 -17 12 -21 7 -5 8 -3 3 6 -6 10 -4 12 9 7 13 -5 17
-3 13 6 -3 8 1 14 9 14 8 0 13 -7 12 -15 -2 -8 5 -16 15 -17 9 -2 15 1 11 6
-3 5 -10 6 -16 3 -7 -4 -8 -2 -4 5 4 6 12 9 17 6 16 -10 50 -14 44 -6 -3 5 2
12 11 15 8 3 12 2 9 -4 -3 -6 -3 -10 2 -11 52 -5 81 -4 77 3 -3 5 -11 5 -17 2
-7 -4 -8 -3 -4 1 13 15 37 14 37 0 0 -8 5 -17 12 -21 7 -5 8 -3 3 6 -6 10 -4
12 9 7 13 -5 17 -3 13 6 -3 8 1 14 9 14 8 0 13 -7 12 -15 -2 -8 5 -16 15 -17
9 -2 15 1 11 6 -3 5 -10 6 -16 3 -7 -4 -8 -2 -4 5 4 6 12 9 17 6 16 -10 50
-14 44 -6 -3 5 2 12 11 15 8 3 13 2 10 -3 -3 -5 1 -11 9 -15 8 -3 15 -1 15 5
0 6 9 5 23 -2 l22 -12 -20 24 c-15 18 -16 20 -2 10 9 -7 17 -10 17 -5 0 5 4 3
9 -5 6 -9 11 -10 15 -2 4 6 3 11 -2 11 -6 0 -12 7 -16 15 -4 12 -2 13 13 5 15
-8 22 -5 35 15 9 14 13 25 9 24 -21 -3 -31 3 -36 21 -3 11 -1 18 4 14 5 -3 16
-1 25 4 15 8 15 10 0 15 -11 5 -15 3 -10 -5 4 -7 3 -8 -4 -4 -7 4 -17 16 -23
28 -6 11 -7 18 -1 14 5 -3 12 3 15 14 3 11 0 18 -7 17 -6 -1 -10 3 -9 9 1 7
-5 11 -15 10 -12 -1 -16 6 -14 24 1 17 -1 21 -7 12 -6 -11 -9 -10 -15 3 -8 22
-8 27 2 21 9 -5 7 52 -2 61 -3 3 0 15 6 27 9 18 9 19 -3 9 -12 -9 -14 -6 -14
18 -1 16 3 29 8 29 5 0 7 -7 4 -14 -4 -10 -1 -13 9 -9 10 4 11 9 4 17 -6 8 -6
17 0 24 7 9 7 9 -2 2 -17 -14 -34 -12 -20 2 16 16 16 41 0 32 -10 -6 -10 -4 0
7 14 15 16 33 3 24 -5 -3 -13 -1 -16 5 -4 6 -3 10 2 9 20 -3 27 2 13 11 -13 8
-12 10 3 10 9 0 17 4 17 10 0 5 -8 7 -17 4 -13 -4 -10 1 7 17 16 14 19 20 8
16 -10 -3 -20 -2 -23 3 -3 4 0 10 5 12 17 5 13 68 -6 101 -5 7 0 6 11 -3 19
-15 19 -14 3 11 -12 20 -14 29 -5 38 8 8 8 11 -2 11 -7 0 -9 5 -6 10 4 6 12 8
18 4 7 -3 3 2 -7 10 -17 14 -18 16 -3 16 19 0 23 15 5 26 -7 5 -8 2 -3 -7 5
-8 4 -11 -1 -6 -14 13 -12 58 2 64 8 3 14 9 14 15 0 5 -4 7 -9 3 -5 -3 -13 0
-17 6 -5 8 -3 9 6 4 10 -6 12 -4 7 7 -8 22 13 41 30 27 17 -14 17 2 1 21 -7 8
-3 6 9 -4 13 -10 20 -22 18 -27 -6 -8 42 -2 58 8 6 4 8 0 4 -10 -5 -14 -2 -15
19 -7 15 6 23 6 19 1 -3 -5 0 -13 6 -16 5 -4 8 -14 5 -22 -3 -8 -2 -12 2 -9
11 7 45 -41 47 -64 1 -11 -3 -16 -8 -13 -6 4 -8 0 -4 -10 4 -10 -1 -21 -11
-27 -14 -9 -12 -10 8 -4 l25 6 -25 -27 -25 -28 30 19 c30 18 30 18 14 -1 -9
-11 -14 -26 -12 -33 3 -7 -3 -25 -13 -40 -14 -22 -14 -24 -2 -14 11 9 18 10
23 2 3 -6 12 -7 18 -3 8 5 8 2 0 -9 -7 -8 -10 -18 -6 -21 3 -4 1 -7 -6 -7 -8
0 -11 7 -7 15 3 8 1 15 -4 15 -6 0 -10 -9 -10 -19 0 -11 -6 -22 -12 -25 -7 -3
-2 -3 11 0 15 4 21 2 17 -4 -3 -6 -3 -12 1 -15 5 -2 2 -2 -4 -1 -7 2 -13 -1
-13 -7 0 -6 -5 -7 -12 -3 -7 4 -8 3 -4 -4 4 -6 14 -9 24 -6 11 4 9 -2 -8 -16
l-25 -23 25 8 25 8 -20 -23 -20 -23 25 12 c23 11 22 10 -5 -15 -19 -18 -23
-25 -11 -21 14 6 17 4 12 -8 -3 -8 -2 -15 3 -15 16 0 20 14 8 29 -11 14 -10
14 6 2 13 -10 15 -17 6 -27 -6 -8 -9 -20 -6 -28 4 -10 -1 -13 -18 -11 -14 1
-22 -2 -19 -6 3 -5 13 -9 22 -9 15 0 15 -2 2 -10 -12 -8 -12 -10 5 -10 16 0
17 -2 5 -9 -8 -6 -17 -8 -21 -5 -4 2 -11 -1 -15 -7 -5 -8 -3 -9 6 -4 10 6 12
4 7 -8 -3 -9 -1 -19 5 -23 7 -5 5 -12 -8 -22 -18 -13 -18 -14 6 -7 l25 8 -20
-23 -20 -23 25 13 25 13 -22 -25 c-13 -13 -23 -28 -23 -33 0 -5 6 -1 13 10 11
14 16 15 22 5 6 -9 4 -11 -5 -5 -16 10 -3 -36 14 -47 7 -5 5 -8 -6 -8 -9 0
-19 8 -21 18 -4 13 -5 11 -6 -5 -1 -14 5 -23 13 -23 8 0 18 -4 21 -10 4 -6 -1
-7 -11 -3 -11 4 -15 3 -11 -4 4 -6 1 -14 -5 -17 -7 -3 -1 -3 14 -1 15 2 27 1
27 -3 -1 -4 -1 -9 1 -12 1 -3 3 -16 6 -29 2 -12 13 -34 23 -47 l18 -23 12 22
c6 12 9 14 7 4 -3 -9 -1 -17 5 -17 6 0 7 -4 4 -10 -3 -5 -1 -10 5 -10 7 0 9 9
6 23 -3 12 -3 16 0 9 3 -6 10 -9 16 -6 5 3 8 -2 6 -11 -2 -11 4 -19 15 -20 9
-2 15 1 11 6 -3 5 -11 6 -17 3 -7 -4 -9 -3 -4 1 9 10 48 15 42 5 -2 -4 2 -7
10 -7 8 0 12 4 10 8 -3 4 2 10 11 13 8 3 13 2 9 -3 -10 -17 20 -18 33 -2 8 9
11 10 7 4 -5 -12 1 -15 21 -12 4 0 11 -5 16 -13 8 -10 9 -10 5 2 -2 8 -11 14
-18 12 -8 -2 -11 0 -7 4 5 4 20 8 35 10 16 1 22 0 16 -3 -7 -2 -13 -9 -13 -14
0 -4 7 -5 17 -2 12 5 14 3 8 -7 -6 -9 -4 -11 4 -6 7 5 10 14 8 20 -3 7 1 13 9
13 8 0 13 -7 12 -15 -2 -8 5 -16 15 -17 9 -2 15 1 11 6 -3 5 -10 6 -16 3 -7
-4 -8 -2 -4 5 4 6 12 9 17 6 15 -10 50 -15 45 -6 -3 4 5 13 17 21 21 12 21 12
7 -5 -14 -17 -13 -18 3 -12 11 4 16 3 12 -3 -3 -6 -2 -10 3 -10 6 0 12 7 16
15 3 8 15 15 26 15 11 0 20 5 20 11 0 5 -4 7 -10 4 -17 -10 -11 7 8 22 9 8 12
12 6 9 -7 -3 -14 5 -16 18 -4 17 -1 23 9 19 7 -3 13 0 13 6 0 6 -4 11 -10 11
-5 0 -10 12 -10 26 0 16 4 23 12 18 7 -5 8 -3 3 5 -4 7 -18 11 -31 8 -20 -3
-22 -2 -13 9 9 11 8 14 -1 14 -7 0 -10 8 -7 20 4 15 -2 24 -21 35 -15 8 -21
14 -14 15 7 0 10 5 6 12 -4 6 -3 8 3 5 6 -4 14 0 17 9 3 8 2 12 -4 9 -6 -3
-10 -1 -10 4 0 6 6 11 13 11 6 1 1 7 -12 14 -20 11 -21 14 -7 19 10 4 15 3 12
-1 -3 -5 2 -9 10 -9 10 0 8 7 -8 24 -17 19 -18 23 -5 17 10 -3 17 -1 17 5 0 6
-4 11 -10 11 -18 0 -11 30 8 30 11 1 6 6 -13 15 -16 7 -24 14 -16 14 10 1 11
4 2 15 -9 10 -9 16 -1 21 6 4 9 14 6 22 -3 8 -2 11 4 8 5 -3 7 -21 5 -41 -1
-19 0 -32 3 -29 9 9 10 125 1 125 -4 0 -7 18 -7 40 0 25 4 37 11 33 6 -3 7 -1
3 5 -4 6 -13 9 -22 5 -8 -3 -14 -2 -13 3 1 5 0 11 -1 14 -7 18 -5 52 3 57 6 3
7 1 3 -5 -3 -6 -2 -13 3 -16 5 -4 8 2 6 11 -2 10 -4 23 -4 28 -1 6 -6 3 -11
-5 -7 -12 -12 -12 -21 -3 -10 10 -9 14 4 19 24 9 21 27 -3 19 -12 -4 -20 -2
-20 5 0 6 5 8 10 5 6 -3 10 1 10 9 0 8 -5 18 -10 21 -6 4 -8 11 -5 16 4 5 -1
12 -9 15 -9 3 -14 9 -11 13 2 4 -1 8 -8 9 -30 2 -52 9 -49 15 1 4 2 10 2 13 0
4 7 1 15 -6 9 -8 15 -8 15 -2 0 11 -33 25 -59 26 -7 1 -22 17 -32 36 -13 23
-19 28 -19 16 0 -16 -2 -16 -16 -5 -13 10 -17 10 -25 -2 -8 -11 -9 -10 -7 6 2
12 -2 19 -10 17 -8 -1 -11 2 -8 7 4 5 -2 14 -11 20 -10 6 -12 11 -5 11 6 0 12
4 12 10 0 5 -8 7 -17 3 -15 -5 -14 -3 2 10 11 9 25 16 30 17 6 0 3 -5 -5 -10
-11 -8 -9 -9 10 -6 14 3 27 5 30 6 3 2 9 2 14 1 5 -1 3 6 -5 15 -13 16 -12 16
7 6 17 -9 25 -6 52 19 19 18 29 35 25 42 -4 7 2 5 12 -3 17 -14 18 -14 5 10
-13 25 -13 25 8 7 20 -19 21 -18 15 5 -4 18 -3 20 6 8 9 -12 11 -11 11 8 0 12
6 22 13 22 7 0 21 10 31 22 15 17 15 20 3 15 -9 -3 -19 -1 -23 5 -4 7 -3 8 4
4 7 -4 12 -2 12 4 0 6 5 8 10 5 6 -3 10 4 11 17 2 54 13 79 23 53 3 -9 2 -14
-2 -11 -5 3 -9 -1 -9 -9 0 -11 4 -12 14 -4 7 6 10 15 7 20 -3 5 -2 15 2 21 12
19 12 46 0 44 -6 -2 -8 -1 -4 1 4 2 5 10 2 18 -3 7 -1 16 5 20 7 3 8 0 5 -9
-3 -9 -2 -16 3 -16 15 0 9 50 -7 60 -11 7 -12 10 -2 10 7 0 10 5 6 12 -4 7 -3
8 5 4 6 -4 9 -11 7 -15 -3 -4 1 -8 9 -8 8 0 15 4 15 9 0 4 -5 8 -11 8 -6 0 -9
10 -7 23 2 12 9 21 16 19 8 -1 11 2 7 8 -3 6 -10 8 -15 5 -5 -3 -14 4 -20 15
-13 24 4 65 22 54 7 -4 8 -3 4 4 -4 6 -14 8 -23 5 -12 -5 -14 -3 -8 7 18 29
14 58 -7 64 -18 4 -19 7 -8 21 11 13 11 20 0 40 -11 20 -11 27 0 40 8 10 9 15
1 15 -6 0 -11 -4 -11 -10 0 -5 -5 -10 -11 -10 -5 0 -7 5 -4 10 3 6 -2 10 -12
11 -10 0 -13 3 -5 6 6 2 12 9 12 14 0 6 -6 7 -12 3 -10 -6 -10 -4 0 7 6 7 12
18 12 24 0 5 -5 3 -10 -5 -9 -13 -10 -13 -10 0 0 13 -1 13 -11 0 -8 -12 -9
-11 -7 5 2 12 -2 19 -10 17 -8 -1 -11 2 -7 8 3 6 12 8 18 4 7 -3 4 1 -7 10
-11 9 -16 22 -12 31 3 9 2 13 -3 10 -5 -3 -13 0 -16 6 -4 5 -13 8 -20 5 -8 -3
-11 2 -8 15 3 11 0 19 -6 19 -7 0 -10 4 -7 9 3 5 -2 8 -12 7 -10 0 -16 5 -14
14 3 11 1 12 -8 3 -9 -8 -20 -6 -46 9 -19 11 -34 25 -33 31 0 8 2 8 6 0 2 -7
9 -13 15 -13 7 0 7 5 -1 13 -6 8 -9 16 -7 18 2 2 -9 5 -25 6 -20 2 -27 -2 -23
-9 4 -7 3 -8 -5 -4 -6 4 -8 12 -5 18 5 8 1 9 -11 4 -14 -5 -16 -4 -6 7 9 12 7
13 -14 9 -14 -2 -22 -9 -19 -14 4 -6 -5 -2 -20 7 -30 20 -35 31 -7 16 18 -10
31 -6 31 10 0 4 -9 5 -20 2 -12 -3 -20 0 -20 8 0 7 -3 9 -7 6 -3 -4 -13 -1
-22 5 -13 10 -14 10 -3 -2 19 -21 14 -32 -8 -20 -11 6 -17 16 -14 22 5 7 2 8
-5 4 -7 -5 -10 -15 -6 -23 4 -12 2 -13 -7 -6 -7 6 -21 9 -30 8 -10 -2 -20 1
-23 5 -3 5 3 7 14 5 11 -2 26 4 33 13 12 15 11 16 -4 3 -15 -11 -18 -11 -18 0
0 12 -2 12 -9 1 -4 -8 -12 -14 -16 -14 -4 0 -12 6 -16 14 -5 7 -9 8 -9 3 0 -6
-9 -11 -20 -12 -13 -1 -18 3 -14 10 3 7 -1 3 -10 -7 -8 -10 -13 -23 -9 -29 3
-6 1 -7 -6 -3 -6 4 -9 17 -6 29 2 12 2 16 -1 9 -5 -10 -9 -10 -22 0 -9 7 -13
8 -9 2 4 -7 -1 -18 -10 -25 -12 -10 -14 -10 -9 -1 5 8 0 12 -13 13 -12 1 -36
2 -53 3 -20 1 -32 7 -30 14 2 14 -4 16 -13 3z m-465 -29 c0 -5 -7 -9 -15 -9
-8 0 -12 4 -9 9 3 4 9 8 15 8 5 0 9 -4 9 -8z m97 -7 c0 -8 -4 -12 -9 -9 -5 3
-6 10 -3 15 9 13 12 11 12 -6z m600 -2 c0 -8 -4 -10 -12 -3 -7 5 -16 6 -20 2
-5 -4 -5 -2 -2 4 9 15 34 13 34 -3z m-763 -87 c-3 -9 -10 -16 -15 -16 -5 0 -4
9 3 20 14 22 21 20 12 -4z m624 -60 c9 10 19 11 30 5 9 -4 23 -6 30 -4 6 3 12
0 12 -5 0 -5 9 -19 20 -32 24 -28 26 -19 4 18 -11 18 -12 22 -2 10 8 -10 19
-14 23 -10 5 4 5 2 2 -4 -4 -6 2 -22 13 -34 23 -26 26 -36 7 -24 -7 5 -5 2 5
-8 13 -12 15 -18 6 -22 -7 -4 -4 -5 8 -2 12 2 21 -2 21 -10 0 -7 -3 -11 -6 -9
-4 2 -11 -8 -18 -21 -6 -13 -7 -24 -3 -24 5 0 10 6 13 13 3 9 8 9 18 -2 12
-12 12 -13 0 -6 -9 5 -12 3 -9 -6 3 -8 1 -22 -4 -31 -5 -11 -5 -18 1 -18 6 0
15 8 20 18 6 9 11 12 11 5 0 -6 -5 -15 -11 -19 -6 -3 -9 -15 -6 -25 3 -11 2
-17 -2 -15 -4 3 -13 1 -21 -5 -12 -7 -11 -9 5 -10 11 -1 24 -1 29 0 5 1 4 -5
-3 -13 -7 -8 -9 -21 -5 -27 4 -7 3 -10 -2 -7 -5 3 -16 -10 -25 -28 -11 -23
-12 -31 -4 -24 9 8 15 8 20 0 3 -6 12 -7 18 -3 8 5 8 2 0 -9 -7 -8 -10 -18 -6
-21 3 -4 1 -7 -6 -7 -8 0 -11 7 -7 15 3 8 1 15 -4 15 -6 0 -10 -9 -10 -19 0
-11 -6 -22 -12 -25 -7 -3 -2 -3 11 0 15 4 21 2 17 -4 -3 -6 -3 -12 1 -15 5 -2
2 -2 -4 -1 -7 2 -13 -1 -13 -7 0 -6 -5 -7 -12 -3 -7 4 -8 3 -4 -4 4 -6 14 -9
24 -6 11 4 9 -2 -8 -16 l-25 -23 25 8 25 8 -20 -23 -20 -23 25 12 c23 11 22
10 -5 -15 -19 -18 -23 -25 -11 -21 14 6 17 4 12 -8 -3 -8 -2 -15 3 -15 16 0
20 14 8 29 -11 14 -10 14 6 2 13 -10 15 -17 6 -27 -6 -8 -9 -20 -6 -27 4 -10
-2 -13 -19 -11 -13 1 -22 -2 -18 -7 3 -5 12 -9 21 -9 9 0 13 -6 10 -14 -3 -7
0 -19 6 -25 6 -6 7 -12 2 -12 -6 -1 -16 -2 -24 -3 -17 -1 -28 -26 -11 -26 6 0
8 5 4 12 -5 7 -3 8 6 3 10 -6 9 -11 -5 -22 -11 -7 -15 -13 -10 -13 4 0 0 -10
-11 -22 -10 -12 -14 -19 -9 -15 6 3 17 2 25 -4 11 -6 12 -9 2 -9 -7 0 -10 -5
-6 -12 4 -7 3 -8 -4 -4 -20 12 -33 -3 -22 -25 6 -10 7 -19 3 -18 -20 3 -24 -2
-12 -18 11 -15 11 -16 -1 -5 -17 14 -44 16 -35 2 3 -5 1 -10 -4 -10 -6 0 -11
6 -11 13 0 8 -3 9 -8 1 -4 -6 -17 -13 -29 -16 -16 -4 -20 -2 -16 8 4 12 0 12
-21 4 -18 -6 -26 -6 -26 1 0 6 -4 7 -10 4 -6 -4 -7 1 -3 11 4 11 8 13 11 6 2
-7 8 -12 14 -12 6 0 6 6 -2 15 -6 8 -9 19 -6 24 4 5 2 12 -4 16 -6 4 -7 11 -4
17 4 6 0 14 -7 19 -11 7 -10 9 4 9 9 0 17 4 17 10 0 5 -8 7 -17 4 -14 -4 -13
-1 4 14 19 17 20 21 7 26 -10 4 -13 2 -8 -6 4 -7 3 -8 -4 -4 -9 5 -8 14 4 31
11 18 12 25 3 31 -7 4 -9 3 -5 -4 3 -6 3 -13 -2 -16 -4 -2 -9 4 -9 15 -1 10 5
19 13 19 8 0 14 4 14 10 0 5 -8 7 -17 4 -13 -4 -10 1 7 17 16 14 19 20 8 16
-10 -3 -20 -2 -23 3 -3 4 0 10 5 12 20 6 11 85 -10 80 -6 -1 -9 2 -5 8 3 6 12
7 18 3 7 -4 5 2 -3 12 -14 17 -13 18 5 11 11 -4 16 -4 12 0 -4 4 -1 14 6 23
11 14 10 14 -5 2 -10 -7 -18 -10 -19 -5 0 5 -2 17 -4 27 -2 9 3 17 11 17 8 0
14 4 14 10 0 5 -8 7 -17 4 -13 -4 -10 1 7 17 16 14 19 20 8 16 -22 -8 -33 9
-12 17 15 6 15 9 -1 33 -15 22 -15 25 -2 20 11 -4 14 -2 10 9 -3 7 -9 14 -15
14 -5 0 -6 5 -3 10 4 6 12 8 18 4 7 -3 3 2 -7 10 -17 14 -18 16 -3 16 19 0 23
15 5 26 -7 5 -8 3 -3 -6 5 -8 4 -11 -2 -7 -15 9 -10 57 7 67 13 8 13 11 1 22
-12 11 -13 10 -6 -2 5 -8 4 -11 0 -7 -17 15 -14 36 3 30 10 -4 14 -3 10 2 -4
4 -2 15 5 23 6 9 7 13 2 10 -6 -4 -17 -3 -25 3 -13 7 -13 9 0 10 8 1 19 1 23
0 5 -1 6 3 2 8 -3 6 -11 9 -18 7 -7 -1 -9 -1 -4 1 4 3 4 10 1 15 -5 7 -2 8 6
3 10 -6 12 -3 7 11 -6 17 -6 17 6 3 10 -14 14 -14 25 -3z m526 -4 c3 -5 -1 -9
-9 -9 -8 0 -15 4 -15 9 0 4 4 8 9 8 6 0 12 -4 15 -8z m-1074 -57 c-10 -12 -10
-15 0 -15 8 0 11 -3 7 -6 -3 -3 -11 -3 -17 1 -8 5 -8 11 1 21 6 8 14 14 16 14
3 0 0 -7 -7 -15z m1236 -267 c0 -10 -1 -18 -3 -18 -1 0 -7 8 -12 18 -7 13 -6
19 2 19 7 0 13 -9 13 -19z m-492 -17 c3 -5 -1 -11 -9 -14 -9 -4 -12 -1 -8 9 6
16 10 17 17 5z m499 -116 c-3 -9 -8 -14 -10 -11 -3 3 -2 9 2 15 9 16 15 13 8
-4z m-1218 -63 c-3 -3 -11 0 -18 7 -9 10 -8 11 6 5 10 -3 15 -9 12 -12z m480
-11 c3 -5 2 -12 -3 -15 -5 -3 -9 1 -9 9 0 17 3 19 12 6z m-480 -229 c-3 -3
-11 0 -18 7 -9 10 -8 11 6 5 10 -3 15 -9 12 -12z m1130 0 c-3 -3 -11 0 -18 7
-9 10 -8 11 6 5 10 -3 15 -9 12 -12z m-115 -106 c0 -2 -7 -9 -15 -16 -13 -11
-14 -10 -9 4 5 14 24 23 24 12z m-430 -157 c0 -10 -27 -19 -34 -12 -12 12 -5
22 14 20 11 -1 20 -4 20 -8z m540 -105 c0 -2 -7 -4 -15 -4 -8 0 -15 4 -15 10
0 5 7 7 15 4 8 -4 15 -8 15 -10z m5 -24 c3 -6 -1 -7 -9 -4 -18 7 -21 14 -7 14
6 0 13 -4 16 -10z m-411 -149 c3 -5 -1 -11 -9 -14 -9 -4 -12 -1 -8 9 6 16 10
17 17 5z m-719 -19 c-3 -3 -11 0 -18 7 -9 10 -8 11 6 5 10 -3 15 -9 12 -12z
m480 -11 c3 -5 2 -12 -3 -15 -5 -3 -9 1 -9 9 0 17 3 19 12 6z m696 -25 c-10
-12 -9 -20 4 -39 13 -20 14 -27 3 -33 -7 -4 -10 -3 -5 1 4 5 0 19 -9 32 -12
19 -13 27 -3 39 6 8 14 14 16 14 3 0 0 -6 -6 -14z m-1176 -204 c-3 -3 -11 0
-18 7 -9 10 -8 11 6 5 10 -3 15 -9 12 -12z m705 -87 c0 -8 -4 -15 -10 -15 -5
0 -7 7 -4 15 4 8 8 15 10 15 2 0 4 -7 4 -15z m-220 -9 c0 -3 -4 -8 -10 -11 -5
-3 -10 -1 -10 4 0 6 5 11 10 11 6 0 10 -2 10 -4z m720 -80 c0 -3 -4 -8 -10
-11 -5 -3 -10 -1 -10 4 0 6 5 11 10 11 6 0 10 -2 10 -4z m-675 -46 c3 -6 -1
-7 -9 -4 -18 7 -21 14 -7 14 6 0 13 -4 16 -10z m28 -137 c-3 -7 -6 -13 -8 -13
-2 0 -5 6 -8 13 -3 8 1 14 8 14 7 0 11 -6 8 -14z m212 -3 c-3 -5 -1 -10 4 -10
6 0 11 -5 11 -11 0 -8 -5 -8 -15 1 -17 14 -20 30 -4 30 5 0 7 -4 4 -10z m-835
-25 c0 -2 -9 -3 -19 -2 -11 0 -18 5 -15 9 4 6 34 0 34 -7z"/>
<path d="M976 2453 c-6 -14 -5 -15 5 -6 7 7 10 15 7 18 -3 3 -9 -2 -12 -12z"/>
<path d="M923 2305 c0 -8 4 -15 9 -15 4 0 8 4 8 9 0 6 -4 12 -8 15 -5 3 -9 -1
-9 -9z"/>
<path d="M1116 2222 c-3 -5 1 -9 9 -9 8 0 15 4 15 9 0 4 -4 8 -9 8 -6 0 -12
-4 -15 -8z"/>
<path d="M1113 2165 c0 -7 6 -12 13 -12 7 0 15 5 17 12 3 6 -3 11 -12 11 -10
0 -18 -5 -18 -11z"/>
<path d="M1117 1869 c7 -7 15 -10 18 -7 3 3 -2 9 -12 12 -14 6 -15 5 -6 -5z"/>
<path d="M1120 1796 c0 -2 7 -7 16 -10 8 -3 12 -2 9 4 -6 10 -25 14 -25 6z"/>
<path d="M1060 1630 c-9 -6 -10 -10 -3 -10 6 0 15 5 18 10 8 12 4 12 -15 0z"/>
<path d="M847 2637 c-3 -8 1 -14 8 -14 7 0 11 6 8 14 -3 7 -6 13 -8 13 -2 0
-5 -6 -8 -13z"/>
<path d="M530 2629 c0 -5 5 -7 10 -4 6 3 10 8 10 11 0 2 -4 4 -10 4 -5 0 -10
-5 -10 -11z"/>
<path d="M2616 2573 c-6 -14 -5 -15 5 -6 7 7 10 15 7 18 -3 3 -9 -2 -12 -12z"/>
<path d="M2610 2540 c0 -5 5 -10 11 -10 5 0 7 5 4 10 -3 6 -8 10 -11 10 -2 0
-4 -4 -4 -10z"/>
<path d="M1426 2516 c10 -8 21 -12 24 -10 5 6 -21 24 -34 24 -6 0 -1 -6 10
-14z"/>
<path d="M2620 2438 c0 -4 4 -8 9 -8 6 0 12 4 15 8 3 5 -1 9 -9 9 -8 0 -15 -4
-15 -9z"/>
<path d="M1806 2373 c-6 -14 -5 -15 5 -6 7 7 10 15 7 18 -3 3 -9 -2 -12 -12z"/>
<path d="M2156 2368 c3 -4 11 -5 19 -1 21 7 19 12 -4 10 -11 0 -18 -5 -15 -9z"/>
<path d="M420 2329 c0 -5 5 -7 10 -4 6 3 10 8 10 11 0 2 -4 4 -10 4 -5 0 -10
-5 -10 -11z"/>
<path d="M2375 2289 c-4 -6 -5 -12 -2 -15 2 -3 7 2 10 11 7 17 1 20 -8 4z"/>
<path d="M2663 2245 c0 -8 4 -12 9 -9 5 3 6 10 3 15 -9 13 -12 11 -12 -6z"/>
<path d="M1780 2219 c0 -5 5 -7 10 -4 6 3 10 8 10 11 0 2 -4 4 -10 4 -5 0 -10
-5 -10 -11z"/>
<path d="M427 2183 c-4 -3 -7 -11 -7 -17 0 -6 5 -5 12 2 6 6 9 14 7 17 -3 3
-9 2 -12 -2z"/>
<path d="M2440 2160 c0 -5 5 -10 11 -10 5 0 7 5 4 10 -3 6 -8 10 -11 10 -2 0
-4 -4 -4 -10z"/>
<path d="M2669 2157 c6 -8 7 -18 3 -23 -4 -5 -3 -5 2 -1 16 13 15 37 -1 37
-12 0 -13 -3 -4 -13z"/>
<path d="M1780 2139 c0 -5 5 -7 10 -4 6 3 10 8 10 11 0 2 -4 4 -10 4 -5 0 -10
-5 -10 -11z"/>
<path d="M2250 2126 c0 -2 6 -9 14 -15 11 -9 16 -9 22 0 4 8 3 9 -4 5 -7 -4
-12 -2 -12 3 0 6 -4 11 -10 11 -5 0 -10 -2 -10 -4z"/>
<path d="M2490 2080 c0 -5 5 -10 11 -10 5 0 7 5 4 10 -3 6 -8 10 -11 10 -2 0
-4 -4 -4 -10z"/>
<path d="M1664 2069 c-3 -6 -2 -15 4 -21 6 -6 12 -6 17 3 5 8 4 10 -3 5 -7 -4
-12 -3 -12 3 0 5 6 12 13 14 9 4 9 6 0 6 -6 1 -15 -4 -19 -10z"/>
<path d="M410 2000 c0 -5 5 -10 11 -10 5 0 7 5 4 10 -3 6 -8 10 -11 10 -2 0
-4 -4 -4 -10z"/>
<path d="M427 1783 c-4 -3 -7 -11 -7 -17 0 -6 5 -5 12 2 6 6 9 14 7 17 -3 3
-9 2 -12 -2z"/>
<path d="M410 1520 c0 -5 5 -10 11 -10 5 0 7 5 4 10 -3 6 -8 10 -11 10 -2 0
-4 -4 -4 -10z"/>
<path d="M1356 1521 c-3 -4 4 -17 17 -27 22 -19 22 -19 4 2 -9 11 -14 24 -10
27 3 4 4 7 0 7 -3 0 -8 -4 -11 -9z"/>
<path d="M1440 1464 c1 -14 29 -48 35 -42 3 2 -4 15 -15 28 -11 13 -20 19 -20
14z"/>
<path d="M2627 1449 c7 -7 15 -10 18 -7 3 3 -2 9 -12 12 -14 6 -15 5 -6 -5z"/>
<path d="M427 1383 c-4 -3 -7 -11 -7 -17 0 -6 5 -5 12 2 6 6 9 14 7 17 -3 3
-9 2 -12 -2z"/>
<path d="M923 1345 c0 -8 4 -15 9 -15 4 0 8 4 8 9 0 6 -4 12 -8 15 -5 3 -9 -1
-9 -9z"/>
<path d="M1106 1332 c-3 -6 1 -15 8 -21 8 -7 17 -8 20 -3 3 6 -1 15 -8 21 -8
7 -17 8 -20 3z"/>
<path d="M427 1223 c-4 -3 -7 -11 -7 -17 0 -6 5 -5 12 2 6 6 9 14 7 17 -3 3
-9 2 -12 -2z"/>
<path d="M1615 1180 c3 -5 8 -10 11 -10 2 0 4 5 4 10 0 6 -5 10 -11 10 -5 0
-7 -4 -4 -10z"/>
<path d="M1870 1120 c0 -5 5 -10 11 -10 5 0 7 5 4 10 -3 6 -8 10 -11 10 -2 0
-4 -4 -4 -10z"/>
<path d="M1975 1120 c3 -5 8 -10 11 -10 2 0 4 5 4 10 0 6 -5 10 -11 10 -5 0
-7 -4 -4 -10z"/>
<path d="M427 983 c-4 -3 -7 -11 -7 -17 0 -6 5 -5 12 2 6 6 9 14 7 17 -3 3 -9
2 -12 -2z"/>
<path d="M2719 965 c-1 -3 -2 -13 -3 -22 -1 -10 -5 -24 -9 -30 -5 -8 -4 -13 2
-13 6 0 11 3 12 8 4 30 5 62 2 62 -1 0 -4 -2 -4 -5z"/>
<path d="M1125 900 c3 -5 8 -10 11 -10 2 0 4 5 4 10 0 6 -5 10 -11 10 -5 0 -7
-4 -4 -10z"/>
<path d="M2085 880 c3 -5 8 -10 11 -10 2 0 4 5 4 10 0 6 -5 10 -11 10 -5 0 -7
-4 -4 -10z"/>
<path d="M401 816 c-8 -10 -9 -16 -1 -21 6 -4 9 -1 8 7 -2 7 3 12 10 10 8 -1
11 2 7 8 -8 13 -10 13 -24 -4z"/>
<path d="M1838 813 c7 -3 16 -2 19 1 4 3 -2 6 -13 5 -11 0 -14 -3 -6 -6z"/>
<path d="M996 654 c-4 -9 -4 -19 -1 -22 2 -3 7 3 11 12 4 9 4 19 1 22 -2 3 -7
-3 -11 -12z"/>
<path d="M2616 632 c-3 -5 1 -9 9 -9 8 0 12 4 9 9 -3 4 -7 8 -9 8 -2 0 -6 -4
-9 -8z"/>
<path d="M1150 586 c0 -2 7 -7 16 -10 8 -3 12 -2 9 4 -6 10 -25 14 -25 6z"/>
<path d="M1667 489 c7 -7 15 -10 18 -7 3 3 -2 9 -12 12 -14 6 -15 5 -6 -5z"/>
<path d="M2260 476 c0 -2 8 -10 18 -17 15 -13 16 -12 3 4 -13 16 -21 21 -21
13z"/>
</g>
</svg>
